HIERARCHY
ROOT Root
{
  OFFSET 0.0 0.0 0.0
  CHANNELS 6 Xposition Yposition Zposition Zrotation Yrotation Xrotation
  JOINT Hips
  {
    OFFSET 0.0 100.0 0.0
    CHANNELS 6 Xposition Yposition Zposition Zrotation Yrotation Xrotation
    JOINT Spine1
    {
      OFFSET -0.013727 5.003763 -0.053727
      CHANNELS 3 Zrotation Yrotation Xrotation
      JOINT Spine2
      {
        OFFSET -0.0 7.125301 -0.029825
        CHANNELS 3 Zrotation Yrotation Xrotation
        JOINT Chest
        {
          OFFSET -1e-06 7.550063 -0.815971
          CHANNELS 3 Zrotation Yrotation Xrotation
          JOINT Neck1
          {
            OFFSET -0.181677 26.311295 -0.553348
            CHANNELS 3 Zrotation Yrotation Xrotation
            JOINT Neck2
            {
              OFFSET -3e-06 7.709397 2.302585
              CHANNELS 3 Zrotation Yrotation Xrotation
              JOINT Head
              {
                OFFSET -5e-06 6.128916 1.953709
                CHANNELS 3 Zrotation Yrotation Xrotation
                JOINT HeadEnd
                {
                  OFFSET 0.003598 16.065403 -1.835379
                  CHANNELS 3 Zrotation Yrotation Xrotation
                }
                JOINT Jaw
                {
                  OFFSET 0.002637 0.475592 3.094941
                  CHANNELS 3 Zrotation Yrotation Xrotation
                }
                JOINT LeftEye
                {
                  OFFSET 3.206381 5.380205 7.586883
                  CHANNELS 3 Zrotation Yrotation Xrotation
                }
                JOINT RightEye
                {
                  OFFSET -3.22244 5.361869 7.558234
                  CHANNELS 3 Zrotation Yrotation Xrotation
                }
              }
            }
          }
          JOINT LeftShoulder
          {
            OFFSET 1.621652 23.237164 5.113413
            CHANNELS 3 Zrotation Yrotation Xrotation
            JOINT LeftArm
            {
              OFFSET 14.919846 2e-06 -5.502326
              CHANNELS 3 Zrotation Yrotation Xrotation
              JOINT LeftForeArm
              {
                OFFSET 28.739307 0.0 -0.002588
                CHANNELS 3 Zrotation Yrotation Xrotation
                JOINT LeftHand
                {
                  OFFSET 27.093981 -1e-06 0.002609
                  CHANNELS 3 Zrotation Yrotation Xrotation
                  JOINT LeftHandThumb1
                  {
                    OFFSET 2.276482 -1.392045 3.191413
                    CHANNELS 3 Zrotation Yrotation Xrotation
                    JOINT LeftHandThumb2
                    {
                      OFFSET 4.012836 -1.828127 1.641654
                      CHANNELS 3 Zrotation Yrotation Xrotation
                      JOINT LeftHandThumb3
                      {
                        OFFSET 2.798515 0.0 -3e-06
                        CHANNELS 3 Zrotation Yrotation Xrotation
                        JOINT LeftHandThumbEnd
                        {
                          OFFSET 3.180793 -4e-06 4e-06
                          CHANNELS 3 Zrotation Yrotation Xrotation
                        }
                      }
                    }
                  }
                  JOINT LeftHandIndex1
                  {
                    OFFSET 3.247555 -0.531998 2.296169
                    CHANNELS 3 Zrotation Yrotation Xrotation
                    JOINT LeftHandIndex2
                    {
                      OFFSET 6.364578 0.01206 0.1786
                      CHANNELS 3 Zrotation Yrotation Xrotation
                      JOINT LeftHandIndex3
                      {
                        OFFSET 3.662364 0.0 0.0
                        CHANNELS 3 Zrotation Yrotation Xrotation
                        JOINT LeftHandIndex4
                        {
                          OFFSET 2.329242 4e-06 4e-06
                          CHANNELS 3 Zrotation Yrotation Xrotation
                          JOINT LeftHandIndexEnd
                          {
                            OFFSET 2.759615 -0.180537 -0.113024
                            CHANNELS 3 Zrotation Yrotation Xrotation
                          }
                        }
                      }
                    }
                  }
                  JOINT LeftHandMiddle1
                  {
                    OFFSET 3.163495 0.240981 1.000332
                    CHANNELS 3 Zrotation Yrotation Xrotation
                    JOINT LeftHandMiddle2
                    {
                      OFFSET 6.19078 -0.259278 -1.002548
                      CHANNELS 3 Zrotation Yrotation Xrotation
                      JOINT LeftHandMiddle3
                      {
                        OFFSET 4.35652 -4e-06 -1e-06
                        CHANNELS 3 Zrotation Yrotation Xrotation
                        JOINT LeftHandMiddle4
                        {
                          OFFSET 2.996877 -8e-06 0.0
                          CHANNELS 3 Zrotation Yrotation Xrotation
                          JOINT LeftHandMiddleEnd
                          {
                            OFFSET 2.304287 -0.294569 -0.031741
                            CHANNELS 3 Zrotation Yrotation Xrotation
                          }
                        }
                      }
                    }
                  }
                  JOINT LeftHandRing1
                  {
                    OFFSET 2.882643 -0.053652 -0.322543
                    CHANNELS 3 Zrotation Yrotation Xrotation
                    JOINT LeftHandRing2
                    {
                      OFFSET 5.854541 -0.486202 -1.373841
                      CHANNELS 3 Zrotation Yrotation Xrotation
                      JOINT LeftHandRing3
                      {
                        OFFSET 4.350578 0.0 3e-06
                        CHANNELS 3 Zrotation Yrotation Xrotation
                        JOINT LeftHandRing4
                        {
                          OFFSET 2.651321 7e-06 2e-06
                          CHANNELS 3 Zrotation Yrotation Xrotation
                          JOINT LeftHandRingEnd
                          {
                            OFFSET 1.936105 0.077687 -7.1e-05
                            CHANNELS 3 Zrotation Yrotation Xrotation
                          }
                        }
                      }
                    }
                  }
                  JOINT LeftHandPinky1
                  {
                    OFFSET 2.8655 -0.310005 -1.600378
                    CHANNELS 3 Zrotation Yrotation Xrotation
                    JOINT LeftHandPinky2
                    {
                      OFFSET 5.087849 -1.331141 -1.77123
                      CHANNELS 3 Zrotation Yrotation Xrotation
                      JOINT LeftHandPinky3
                      {
                        OFFSET 3.070974 4e-06 0.0
                        CHANNELS 3 Zrotation Yrotation Xrotation
                        JOINT LeftHandPinky4
                        {
                          OFFSET 1.549672 0.0 1e-06
                          CHANNELS 3 Zrotation Yrotation Xrotation
                          JOINT LeftHandPinkyEnd
                          {
                            OFFSET 1.944893 -0.157802 0.057219
                            CHANNELS 3 Zrotation Yrotation Xrotation
                          }
                        }
                      }
                    }
                  }
                }
              }
            }
          }
          JOINT RightShoulder
          {
            OFFSET -1.380118 23.180309 5.214158
            CHANNELS 3 Zrotation Yrotation Xrotation
            JOINT RightArm
            {
              OFFSET -15.037196 1.2e-05 -5.545604
              CHANNELS 3 Zrotation Yrotation Xrotation
              JOINT RightForeArm
              {
                OFFSET -28.736639 2e-06 -0.002597
                CHANNELS 3 Zrotation Yrotation Xrotation
                JOINT RightHand
                {
                  OFFSET -27.133619 -0.0 0.002613
                  CHANNELS 3 Zrotation Yrotation Xrotation
                  JOINT RightHandThumb1
                  {
                    OFFSET -2.274032 -1.383988 3.163127
                    CHANNELS 3 Zrotation Yrotation Xrotation
                    JOINT RightHandThumb2
                    {
                      OFFSET -4.011429 -1.827466 1.640914
                      CHANNELS 3 Zrotation Yrotation Xrotation
                      JOINT RightHandThumb3
                      {
                        OFFSET -2.794935 -4e-06 -3e-06
                        CHANNELS 3 Zrotation Yrotation Xrotation
                        JOINT RightHandThumbEnd
                        {
                          OFFSET -3.183852 4e-06 1e-06
                          CHANNELS 3 Zrotation Yrotation Xrotation
                        }
                      }
                    }
                  }
                  JOINT RightHandIndex1
                  {
                    OFFSET -3.253266 -0.520057 2.282866
                    CHANNELS 3 Zrotation Yrotation Xrotation
                    JOINT RightHandIndex2
                    {
                      OFFSET -6.341917 0.012471 0.178266
                      CHANNELS 3 Zrotation Yrotation Xrotation
                      JOINT RightHandIndex3
                      {
                        OFFSET -3.654871 -8e-06 -0.0
                        CHANNELS 3 Zrotation Yrotation Xrotation
                        JOINT RightHandIndex4
                        {
                          OFFSET -2.327586 0.0 1e-06
                          CHANNELS 3 Zrotation Yrotation Xrotation
                          JOINT RightHandIndexEnd
                          {
                            OFFSET -2.76179 -0.180656 -0.113078
                            CHANNELS 3 Zrotation Yrotation Xrotation
                          }
                        }
                      }
                    }
                  }
                  JOINT RightHandMiddle1
                  {
                    OFFSET -3.168106 0.246593 1.00103
                    CHANNELS 3 Zrotation Yrotation Xrotation
                    JOINT RightHandMiddle2
                    {
                      OFFSET -6.180828 -0.258836 -1.000895
                      CHANNELS 3 Zrotation Yrotation Xrotation
                      JOINT RightHandMiddle3
                      {
                        OFFSET -4.348901 0.0 -0.0
                        CHANNELS 3 Zrotation Yrotation Xrotation
                        JOINT RightHandMiddle4
                        {
                          OFFSET -3.00024 -4e-06 -2e-06
                          CHANNELS 3 Zrotation Yrotation Xrotation
                          JOINT RightHandMiddleEnd
                          {
                            OFFSET -2.30252 -0.29437 -0.031706
                            CHANNELS 3 Zrotation Yrotation Xrotation
                          }
                        }
                      }
                    }
                  }
                  JOINT RightHandRing1
                  {
                    OFFSET -2.88569 -0.067952 -0.308858
                    CHANNELS 3 Zrotation Yrotation Xrotation
                    JOINT RightHandRing2
                    {
                      OFFSET -5.854198 -0.48613 -1.373731
                      CHANNELS 3 Zrotation Yrotation Xrotation
                      JOINT RightHandRing3
                      {
                        OFFSET -4.33881 -4e-06 -0.0
                        CHANNELS 3 Zrotation Yrotation Xrotation
                        JOINT RightHandRing4
                        {
                          OFFSET -2.654903 -4e-06 4e-06
                          CHANNELS 3 Zrotation Yrotation Xrotation
                          JOINT RightHandRingEnd
                          {
                            OFFSET -1.933568 0.077527 -5.2e-05
                            CHANNELS 3 Zrotation Yrotation Xrotation
                          }
                        }
                      }
                    }
                  }
                  JOINT RightHandPinky1
                  {
                    OFFSET -2.866425 -0.342796 -1.584145
                    CHANNELS 3 Zrotation Yrotation Xrotation
                    JOINT RightHandPinky2
                    {
                      OFFSET -5.091371 -1.332055 -1.772385
                      CHANNELS 3 Zrotation Yrotation Xrotation
                      JOINT RightHandPinky3
                      {
                        OFFSET -3.062664 -4e-06 1e-06
                        CHANNELS 3 Zrotation Yrotation Xrotation
                        JOINT RightHandPinky4
                        {
                          OFFSET -1.546529 4e-06 -2e-06
                          CHANNELS 3 Zrotation Yrotation Xrotation
                          JOINT RightHandPinkyEnd
                          {
                            OFFSET -1.945119 -0.157718 0.057211
                            CHANNELS 3 Zrotation Yrotation Xrotation
                          }
                        }
                      }
                    }
                  }
                }
              }
            }
          }
        }
      }
    }
    JOINT LeftLeg
    {
      OFFSET 10.043214 -8.434526 2.595655
      CHANNELS 3 Zrotation Yrotation Xrotation
      JOINT LeftShin
      {
        OFFSET -1e-06 -43.221752 -0.802913
        CHANNELS 3 Zrotation Yrotation Xrotation
        JOINT LeftFoot
        {
          OFFSET 1e-06 -42.155094 -3.481523
          CHANNELS 3 Zrotation Yrotation Xrotation
          JOINT LeftToeBase
          {
            OFFSET 0.0 -5.059472 13.231529
            CHANNELS 3 Zrotation Yrotation Xrotation
            JOINT LeftToeEnd
            {
              OFFSET -0.009607 -1.647619 6.513017
              CHANNELS 3 Zrotation Yrotation Xrotation
            }
          }
        }
      }
    }
    JOINT RightLeg
    {
      OFFSET -10.047278 -8.29526 2.620317
      CHANNELS 3 Zrotation Yrotation Xrotation
      JOINT RightShin
      {
        OFFSET 1e-06 -43.362206 -0.805556
        CHANNELS 3 Zrotation Yrotation Xrotation
        JOINT RightFoot
        {
          OFFSET 2e-06 -42.117393 -3.478398
          CHANNELS 3 Zrotation Yrotation Xrotation
          JOINT RightToeBase
          {
            OFFSET -0.0 -5.079609 13.284196
            CHANNELS 3 Zrotation Yrotation Xrotation
            JOINT RightToeEnd
            {
              OFFSET 0.009532 -1.634378 6.460591
              CHANNELS 3 Zrotation Yrotation Xrotation
            }
          }
        }
      }
    }
  }
}
MOTION
Frames: 4
Frame Time: 0.03333333333333333
0.0 0.0 0.0 0.0 -0.0 0.0 5.554593 98.907074 1.731535 1.403244 0.235676 -0.394755 -0.80905 -0.181768 -3.100466 -0.647901 -0.54223 -5.767002 -0.658276 -2.45211 12.480911 3.025913 1.481015 1.1021 -0.973054 -0.767242 -3.433253 -1.612816 -0.743485 -0.823625 7.7e-05 -2.2e-05 6e-06 0.020376 -0.08241 0.008016 0.790175 -3.807478 -10.651554 -0.752021 3.643125 -10.650505 -18.439919 -5.69699 12.962736 -49.390186 -3.945246 21.807463 0.360378 -38.832985 0.02455 -5.213697 8.244497 -17.034798 -5.882111 9.861295 0.702591 -10.936883 -0.360577 7.156212 2e-06 8.774837 -1e-06 -16.592266 17.984488 5.91681 -1.844034 2.498506 -2.507279 -10.16361 4.678948 4.621113 -20.976044 -5e-06 6e-06 -21.226305 2.451698 -3.594 2e-06 -5e-06 0.0 -1.362683 2.2408 -0.746323 -21.334936 0.584906 3.008326 -13.821227 -4e-06 5e-06 -23.887194 -0.249079 -0.83948 -60.575809 2.454443 -1.107579 -0.294025 1.679689 0.833257 -14.218224 0.093212 1.300581 -34.212082 -0.287567 0.967178 -20.033232 0.964537 1.212848 0.0 -1e-06 -2e-06 -3.440392 0.788233 0.501656 -15.928203 -3.167316 2.999711 -6.338833 -3e-06 1e-06 -18.123465 3.648183 -4.905672 -2e-06 1e-06 -1e-06 18.70812 6.861839 12.758524 51.511707 -2.396794 18.494648 0.231215 51.173775 0.442027 -4.511873 -12.451522 -6.091526 2.243546 -5.255044 -3.180161 14.282914 -0.826595 6.952507 -5e-06 -12.690623 2e-06 16.180391 -17.575619 2.629957 1.665669 -1.955922 -2.878302 4.727805 -4.170592 4.99393 11.020544 5e-06 -3e-06 12.109072 -3.735717 -2.866791 0.0 -0.0 1e-06 1.291988 -1.92855 -1.498093 14.800153 0.56747 3.865608 14.242596 -1.341734 -6.660669 19.632004 0.14393 -0.648248 49.816021 -0.506007 -6.233108 0.353029 -1.511152 -0.031941 20.222826 3.684318 2.316629 18.787306 9e-06 -3e-06 10.751647 -0.479865 1.397906 -0.0 0.0 0.0 3.273813 0.305947 -0.580112 21.486851 11.830395 2.266127 8.16294 4e-06 -3e-06 18.399111 -3.798984 -4.940584 3e-06 1e-06 -1e-06 5.919599 13.02292 -2.199957 0.014624 -0.083031 12.870862 -8.037365 -0.618277 -8.62227 1.620926 -1.810502 0.095911 -0.0 0.0 2e-06 -7.071213 -7.436472 -6.169498 -0.090357 0.021551 18.798796 7.706046 -0.969919 -11.465222 -1.409756 1.138406 0.344712 -0.0 0.0 -1e-06 
0.0 0.0 0.0 0.0 -0.0 0.0 5.274381 98.917633 1.688481 1.452127 0.436293 -0.273058 -0.877448 -0.250475 -2.948219 -0.631019 -0.607076 -5.729992 -0.686075 -2.631516 12.38128 3.036838 1.460834 1.367153 -0.924684 -0.805037 -3.395586 -1.685111 -0.717505 -1.109394 7.7e-05 -2.2e-05 6e-06 0.016343 -0.052898 0.007681 0.780917 -3.780079 -10.634888 -0.751057 3.675663 -10.643385 -18.135485 -5.590788 13.066966 -49.901642 -3.677233 20.827646 0.129769 -39.69973 0.128064 -5.098783 8.499459 -16.488518 -5.882107 9.861286 0.702591 -10.936872 -0.360574 7.156205 0.0 8.774826 -1e-06 -16.606335 17.919653 5.865334 -1.844033 2.498505 -2.507278 -10.1636 4.678945 4.621108 -20.976023 -2e-06 2e-06 -21.226288 2.451697 -3.594001 1e-06 -5e-06 1e-06 -1.362682 2.240799 -0.746325 -21.334917 0.58491 3.008321 -13.821213 -2e-06 2e-06 -23.887171 -0.249079 -0.839485 -60.601662 2.472153 -1.050375 -0.294025 1.679687 0.833256 -14.218209 0.093216 1.30058 -34.212051 -0.287562 0.967169 -20.033215 0.964536 1.212844 -0.0 -0.0 -2e-06 -3.440389 0.788234 0.501657 -15.928185 -3.167309 2.999704 -6.338827 -1e-06 1e-06 -18.123446 3.648183 -4.905669 -2e-06 0.0 -2e-06 18.518644 6.373012 12.905809 51.074474 -4.426354 18.087448 0.47394 57.254166 0.655637 -5.286113 -13.325213 -5.589082 2.243541 -5.255035 -3.180157 14.282887 -0.826596 6.952499 -2e-06 -12.690601 0.0 16.067974 -17.470022 2.690089 1.665666 -1.95592 -2.878299 4.727797 -4.170585 4.993922 11.020524 3e-06 -2e-06 12.10905 -3.735715 -2.866785 -0.0 0.0 -0.0 1.291986 -1.928549 -1.498089 14.800125 0.567468 3.865604 14.242569 -1.341735 -6.660657 19.631962 0.143926 -0.648247 49.930447 -0.526552 -6.185555 0.353028 -1.511149 -0.03194 20.222786 3.684309 2.316626 18.78727 5e-06 -1e-06 10.751625 -0.479869 1.397903 0.0 -0.0 2e-06 3.273806 0.305948 -0.580111 21.486803 11.830369 2.266128 8.162923 2e-06 -3e-06 18.399076 -3.798982 -4.940575 3e-06 -0.0 -0.0 5.998222 12.649864 -2.278707 -0.032021 -0.088332 12.593237 -8.295172 -0.502108 -8.399027 1.626405 -1.837923 0.080523 0.0 -0.0 2e-06 -6.908857 -7.452579 -6.379648 -0.068789 0.057601 18.989985 7.508878 -1.263889 -11.604836 -1.414213 1.146468 0.297221 -0.0 0.0 -1e-06 
0.0 0.0 0.0 0.0 -0.0 0.0 5.009804 98.899078 1.68116 1.501731 0.745374 -0.073694 -0.951227 -0.317227 -2.801876 -0.619358 -0.704832 -5.706094 -0.697006 -2.797048 12.312593 3.101521 1.428375 1.608198 -0.883465 -0.846591 -3.405254 -1.825867 -0.65471 -1.363045 7.7e-05 -2.2e-05 6e-06 0.015166 -0.04469 0.007476 0.767686 -3.773556 -10.628924 -0.74045 3.686376 -10.640024 -17.746609 -5.50627 13.120015 -50.436047 -3.265046 19.942219 -0.079453 -40.959171 0.257841 -5.004465 8.835959 -16.075033 -5.882109 9.861293 0.702589 -10.936877 -0.360575 7.156208 -0.0 8.774831 -1e-06 -16.576624 17.900517 5.848904 -1.844034 2.498506 -2.507278 -10.163604 4.678946 4.621109 -20.976034 -5e-06 0.0 -21.226299 2.451696 -3.594005 1e-06 -6e-06 -0.0 -1.362682 2.2408 -0.746324 -21.334925 0.584908 3.008322 -13.821218 -2e-06 3e-06 -23.887182 -0.249082 -0.839485 -60.587734 2.49507 -1.094001 -0.294025 1.679689 0.833256 -14.218214 0.093215 1.300579 -34.212063 -0.287566 0.967167 -20.033222 0.964535 1.212843 0.0 -1e-06 -1e-06 -3.44039 0.788234 0.501654 -15.928192 -3.167312 2.999706 -6.338829 -2e-06 -1e-06 -18.123457 3.648183 -4.905674 -2e-06 1e-06 -2e-06 18.412878 5.853004 13.066231 50.074409 -7.102471 18.339502 0.845696 64.956718 0.911811 -5.843743 -14.351686 -5.29783 2.243544 -5.255039 -3.180159 14.282898 -0.826596 6.952505 -2e-06 -12.690611 0.0 15.876987 -17.323944 2.799831 1.665668 -1.955923 -2.8783 4.727802 -4.170589 4.993926 11.020534 3e-06 -2e-06 12.109059 -3.735718 -2.866787 -0.0 0.0 -0.0 1.291986 -1.928551 -1.49809 14.800138 0.567468 3.86561 14.242583 -1.341737 -6.660664 19.631985 0.143927 -0.648246 49.884274 -0.573969 -6.174093 0.353029 -1.51115 -0.03194 20.222803 3.684311 2.316629 18.787285 4e-06 -2e-06 10.751634 -0.479868 1.397905 0.0 -0.0 -0.0 3.273809 0.305947 -0.580112 21.486828 11.830382 2.266131 8.16293 2e-06 -2e-06 18.399096 -3.798986 -4.940578 4e-06 1e-06 -1e-06 6.049612 12.268138 -2.593566 -0.055786 -0.082965 12.622366 -8.507215 -0.53536 -8.32371 1.63218 -1.832749 0.13935 0.0 0.0 2e-06 -6.761134 -7.523845 -6.708092 -0.037024 0.073733 19.35265 7.366168 -1.605089 -11.864455 -1.416775 1.171328 0.274821 -0.0 0.0 -1e-06 
0.0 0.0 0.0 0.0 -0.0 0.0 4.668094 98.874641 1.647285 1.455426 1.08714 0.202266 -0.974822 -0.369536 -2.664009 -0.599105 -0.794767 -5.706985 -0.675603 -2.954038 12.240259 3.186911 1.367272 1.829446 -0.854997 -0.793253 -3.417824 -1.976959 -0.567109 -1.630529 7.7e-05 -2.2e-05 6e-06 0.015214 -0.046678 0.009774 0.756308 -3.774661 -10.621568 -0.729117 3.683365 -10.632024 -17.323059 -5.433122 13.148644 -50.851784 -2.836084 19.419313 -0.178266 -42.304047 0.323831 -4.948786 9.109997 -15.536329 -5.882106 9.861284 0.702588 -10.936872 -0.360575 7.156204 1e-06 8.774824 0.0 -16.520552 17.871243 5.841868 -1.844032 2.498504 -2.507277 -10.163599 4.678943 4.621107 -20.976021 -4e-06 3e-06 -21.226282 2.451696 -3.593998 1e-06 -6e-06 -0.0 -1.362682 2.240799 -0.746324 -21.334913 0.584909 3.008322 -13.821213 -3e-06 2e-06 -23.887173 -0.249079 -0.839481 -60.54118 2.499742 -1.129283 -0.294025 1.679688 0.833255 -14.218207 0.093213 1.30058 -34.212048 -0.287566 0.967171 -20.033211 0.964537 1.212845 0.0 -0.0 -2e-06 -3.440388 0.788233 0.501656 -15.928185 -3.167309 2.999708 -6.338827 -2e-06 3e-06 -18.123444 3.648182 -4.905668 -2e-06 1e-06 -2e-06 18.278612 5.331071 13.191097 48.313309 -9.948421 19.827366 1.218217 73.208672 1.238464 -5.315894 -15.222916 -5.184458 2.243542 -5.255036 -3.180157 14.282892 -0.826595 6.952501 -3e-06 -12.690601 -0.0 15.733337 -17.247486 2.851568 1.665667 -1.955922 -2.8783 4.727799 -4.170585 4.993925 11.020528 2e-06 -3e-06 12.109055 -3.735715 -2.866786 0.0 -1e-06 1e-06 1.291985 -1.928549 -1.498091 14.800129 0.567468 3.865607 14.242575 -1.341736 -6.660661 19.631969 0.143927 -0.648246 49.790012 -0.633492 -6.200942 0.353029 -1.511151 -0.03194 20.222794 3.68431 2.316628 18.787271 5e-06 -3e-06 10.751631 -0.479866 1.397904 -1e-06 -0.0 -0.0 3.273807 0.305947 -0.580112 21.486813 11.830374 2.26613 8.162928 0.0 -0.0 18.399088 -3.798983 -4.940576 3e-06 -0.0 -1e-06 6.245379 12.006868 -3.115007 -0.060757 -0.078395 12.842137 -8.769401 -0.66225 -8.280827 1.630784 -1.809248 0.193031 -0.0 -0.0 2e-06 -6.443333 -7.619395 -7.140268 -0.010021 0.063924 19.724169 7.199458 -1.936746 -12.113544 -1.416489 1.185816 0.227055 -0.0 0.0 -1e-06 
